<svg version="1.1" xmlns="http://www.w3.org/2000/svg" xmlns:xlink="http://www.w3.org/1999/xlink" width="48" height="48"><defs><linearGradient x1="8.44325" y1="8.44323" x2="81.98319" y2="81.98317" gradientUnits="userSpaceOnUse" id="color-1"><stop offset="0" stop-color="#000000" stop-opacity="0.35"></stop><stop offset="1" stop-color="#000000" stop-opacity="0"></stop></linearGradient><filter id="dropshadow-base"><feColorMatrix type="matrix" values="0 0 0 0 0  0 0 0 0 0  0 0 0 0 0  0 0 0 .8 0"></feColorMatrix> <feOffset dx="0" dy="1"></feOffset> <feGaussianBlur stdDeviation="1"></feGaussianBlur> <feComposite in="SourceGraphic"></feComposite></filter><filter id="dropshadow-banner" x="-10%" y="-10%" width="120%" height="130%"><feColorMatrix type="matrix" values="0 0 0 0 0  0 0 0 0 0  0 0 0 0 0  0 0 0 .4 0"></feColorMatrix> <feOffset dx="0" dy="1"></feOffset> <feGaussianBlur stdDeviation="0.5"></feGaussianBlur> <feComposite in="SourceGraphic"></feComposite></filter></defs><g fill="none" fill-rule="nonzero" stroke="none" stroke-width="none" stroke-linecap="butt" stroke-linejoin="miter" stroke-miterlimit="10" stroke-dasharray="" stroke-dashoffset="0" font-family="none" font-weight="none" font-size="none" text-anchor="none" style="mix-blend-mode: normal"><path d="M7,43c-1.10457,0 -2,-0.89543 -2,-2v-34c0,-1.10457 0.89543,-2 2,-2h34c1.10457,0 2,0.89543 2,2v34c0,1.10457 -0.89543,2 -2,2z" id="base 1 5" fill="#ffc107" stroke-width="1"></path><path d="M12.91258,35.08744l0,0c-0.62551,-0.62551 -1.01227,-1.48978 -1.01227,-2.44479l-3.45706,-3.45706v-3.45706l3.45706,0l-3.45706,-3.45706v-3.45706h3.45706v-3.45706c0,-1.91003 1.54703,-3.45706 3.45706,-3.45706h3.45706v-3.45706h3.45706l3.45706,3.45706v-3.45706h3.45706l3.45706,3.45706c0.95502,0 1.81928,0.38676 2.44479,1.01227l7.91255,7.91255v20.17489c0,1.10457 -0.89543,2 -2,2l-20.17486,0z" fill="url(#color-1)" stroke-width="1"></path><path d="M29.18559,18.81441h-10.37119v10.37119h10.37119zM25.72853,25.72853h-3.45706v-3.45706h3.45706zM39.55678,22.27147v-3.45706h-3.45706v-3.45706c0,-1.91003 -1.54704,-3.45706 -3.45706,-3.45706h-3.45706v-3.45706h-3.45706v3.45706h-3.45706v-3.45706h-3.45706v3.45706h-3.45706c-1.91003,0 -3.45706,1.54704 -3.45706,3.45706v3.45706h-3.45706v3.45706h3.45706v3.45706h-3.45706v3.45706h3.45706v3.45706c0,1.91003 1.54704,3.45706 3.45706,3.45706h3.45706v3.45706h3.45706v-3.45706h3.45706v3.45706h3.45706v-3.45706h3.45706c1.91003,0 3.45706,-1.54704 3.45706,-3.45706v-3.45706h3.45706v-3.45706h-3.45706v-3.45706zM32.64266,32.64266h-17.28531v-17.28531h17.28531z" fill="none" stroke-width="0"></path><path d="M29.18559,29.18559h-10.37119v-10.37119h10.37119zM25.72853,22.27147h-3.45706v3.45706h3.45706zM36.09972,22.27147v3.45706h3.45706v3.45706h-3.45706v3.45706c0,1.91003 -1.54704,3.45706 -3.45706,3.45706h-3.45706v3.45706h-3.45706v-3.45706h-3.45706v3.45706h-3.45706v-3.45706h-3.45706c-1.91003,0 -3.45706,-1.54704 -3.45706,-3.45706v-3.45706h-3.45706v-3.45706h3.45706v-3.45706h-3.45706v-3.45706h3.45706v-3.45706c0,-1.91003 1.54704,-3.45706 3.45706,-3.45706h3.45706v-3.45706h3.45706v3.45706h3.45706v-3.45706h3.45706v3.45706h3.45706c1.91003,0 3.45706,1.54704 3.45706,3.45706v3.45706h3.45706v3.45706zM32.64266,15.35734h-17.28531v17.28531h17.28531z" fill="#ffffff" stroke-width="0"></path><path d="M2,24c0,-12.15026 9.84974,-22 22,-22c12.15026,0 22,9.84974 22,22c0,12.15026 -9.84974,22 -22,22c-12.15026,0 -22,-9.84974 -22,-22z" id="base 1 1 1" fill="none" stroke-width="1"></path><g fill="#000000" stroke-width="1" font-family="Roboto, sans-serif" font-weight="400" font-size="14" text-anchor="start"></g><rect x="2" y="2" width="44" height="22" fill="none" stroke-width="1"></rect><path d="M2,24v-22h44v22z" fill="none" stroke-width="1"></path><path d="M2,24v-22h44v22z" fill="none" stroke-width="1"></path><path d="M2,24v-22h44v22z" fill="none" stroke-width="1"></path><path d="M2,24v-22h44v22z" fill="none" stroke-width="1"></path></g></svg>